<svg xmlns="http://www.w3.org/2000/svg" viewBox="0 0 128 128" fill="none">
  <!-- Silueta minimalista de caballo -->
  <path d="M 85 25
           C 88 22, 90 20, 92 22
           L 95 28
           C 96 32, 94 35, 92 38
           L 88 42
           C 86 45, 83 47, 80 48
           L 75 50
           C 73 52, 70 54, 68 56
           L 65 60
           C 63 63, 60 65, 58 66
           L 52 68
           C 48 69, 45 70, 42 72
           L 38 76
           C 36 78, 34 80, 33 83
           L 32 90
           L 32 105
           M 52 68
           L 50 90
           L 50 105
           M 42 72
           L 45 90
           L 45 105
           M 38 76
           L 42 90
           L 42 105
           M 68 56
           C 65 58, 60 58, 55 56
           C 52 55, 50 52, 48 48
           L 45 42
           C 43 38, 42 34, 42 30
           L 42 25
           C 42 22, 44 20, 47 20
           L 55 20
           C 60 20, 65 22, 70 25
           L 75 28
           C 78 30, 80 32, 82 35
           L 85 40"
        stroke="currentColor"
        stroke-width="3.5"
        stroke-linecap="round"
        stroke-linejoin="round"
        fill="none"/>

  <!-- Ojo del caballo -->
  <circle cx="60" cy="35" r="2.5" fill="currentColor"/>

  <style>
    svg {
      color: #8B4513;
    }
    @media (prefers-color-scheme: dark) {
      svg {
        color: #D4A373;
      }
    }
  </style>
</svg>
